name Walk1.mot
datacolumns 19
datarows 15
range 1.74000000 1.81000000
endheader

                time	   L_ground_force_vx	   L_ground_force_vy	   L_ground_force_vz	   L_ground_force_px	   L_ground_force_py	   L_ground_force_pz	   R_ground_force_vx	   R_ground_force_vy	   R_ground_force_vz	   R_ground_force_px	   R_ground_force_py	   R_ground_force_pz	   L_ground_torque_x	   L_ground_torque_y	   L_ground_torque_z	   R_ground_torque_x	   R_ground_torque_y	   R_ground_torque_z	
          1.74000000	         14.55433535	        568.21964996	         36.01891687	         -0.40911833	          0.00000000	         -0.06591831	         -0.00000000	          0.00000000	         -0.00000000	          0.00000000	          0.00000000	          0.00000000	          0.00000000	         -0.41491433	          0.00000000	          0.00000000	         -0.00000000	          0.00000000	
          1.74500000	         16.60830636	        575.55337758	         36.87692156	         -0.40806555	          0.00000000	         -0.06611232	         -0.00000000	          0.00000000	          0.00000000	          0.00000000	          0.00000000	          0.00000000	          0.00000000	         -0.43354682	          0.00000000	          0.00000000	         -0.00000000	          0.00000000	
          1.75000000	         18.76290730	        583.71304455	         37.96247979	         -0.40699271	          0.00000000	         -0.06624610	          0.00000000	         -0.00000000	          0.00000000	         -0.00000000	          0.00000000	         -0.00000000	          0.00000000	         -0.42060675	          0.00000000	          0.00000000	          0.00000000	          0.00000000	
          1.75500000	         20.90681657	        592.45487741	         39.29592885	         -0.40585819	          0.00000000	         -0.06638025	          0.00000000	         -0.00000000	          0.00000000	         -0.00000000	          0.00000000	         -0.00000000	          0.00000000	         -0.39821618	          0.00000000	          0.00000000	          0.00000000	          0.00000000	
          1.76000000	         23.01843926	        601.46095759	         40.63028450	         -0.40479468	          0.00000000	         -0.06665163	          0.00000000	         -0.00000000	         -0.00000000	          0.00000000	          0.00000000	         -0.00000000	          0.00000000	         -0.38615185	          0.00000000	          0.00000000	          0.00000000	          0.00000000	
          1.76500000	         25.12983413	        610.42686064	         41.73892243	         -0.40390577	          0.00000000	         -0.06696916	         -0.00000000	          0.00000000	         -0.00000000	          0.00000000	          0.00000000	          0.00000000	          0.00000000	         -0.38846446	          0.00000000	          0.00000000	         -0.00000000	          0.00000000	
          1.77000000	         27.41387351	        619.31335916	         42.67473459	         -0.40296482	          0.00000000	         -0.06717210	         -0.00000000	          0.00000000	          0.00000000	          0.00000000	          0.00000000	          0.00000000	          0.00000000	         -0.42952553	          0.00000000	          0.00000000	         -0.00000000	          0.00000000	
          1.77500000	         29.96988809	        628.04377309	         43.48483011	         -0.40196756	          0.00000000	         -0.06728002	         -0.00000000	          0.00000000	          0.00000000	         -0.00000000	          0.00000000	         -0.00000000	          0.00000000	         -0.50271206	          0.00000000	          0.00000000	         -0.00000000	          0.00000000	
          1.78000000	         32.50070080	        636.68104457	         44.08842437	         -0.40105370	          0.00000000	         -0.06745271	          0.00000000	         -0.00000001	          0.00000000	         -0.00000000	          0.00000000	         -0.00000000	          0.00000000	         -0.57465220	          0.00000000	          0.00000000	          0.00000000	          0.00000000	
          1.78500000	         34.94677729	        645.21689734	         44.50586157	         -0.40019551	          0.00000000	         -0.06775191	          0.00000000	         -0.00000005	         -0.00000000	         -0.00000000	          0.00000000	         -0.00000000	          0.00000000	         -0.62474940	          0.00000000	          0.00000000	          0.00000000	          0.00000000	
          1.79000000	         37.56143186	        653.62618170	         44.95069834	         -0.39945417	          0.00000000	         -0.06806507	          0.00000000	         -0.00000004	         -0.00000001	          0.00000000	          0.00000000	          0.00000000	          0.00000000	         -0.67492715	          0.00000000	          0.00000000	          0.00000000	          0.00000000	
          1.79500000	         40.42805721	        661.94000494	         45.47175678	         -0.39878684	          0.00000000	         -0.06816646	         -0.00000002	          0.00000037	         -0.00000001	          0.00000000	          0.00000000	          0.00000000	          0.00000000	         -0.75280126	          0.00000000	          0.00000000	         -0.00000000	          0.00000000	
          1.80000000	         43.44558484	        669.69446318	         45.96368399	         -0.39817989	          0.00000000	         -0.06815040	         -0.00000005	          0.00000133	          0.00000003	          0.00000000	          0.00000000	          0.00000000	          0.00000000	         -0.84737750	          0.00000000	          0.00000000	         -0.00000000	          0.00000000	
          1.80500000	         46.56858681	        676.69103142	         46.40529775	         -0.39755765	          0.00000000	         -0.06818426	          0.00000003	          0.00000002	          0.00000017	         -0.00000000	          0.00000000	         -0.00000000	          0.00000000	         -0.92677839	          0.00000000	          0.00000000	          0.00000000	          0.00000000	
          1.81000000	         49.77941088	        683.05436649	         46.88559102	         -0.39689180	          0.00000000	         -0.06820263	          0.00000051	         -0.00001218	          0.00000019	         -0.00000001	          0.00000000	         -0.00000001	          0.00000000	         -0.99000509	          0.00000000	          0.00000000	          0.00000001	          0.00000000	
